Coordinates
version=1
nRows=13
nColumns=40
inDegrees=yes

Units are S.I. units (second, meters, Newtons, ...)
If the header above contains a line with 'inDegrees', this indicates whether rotational values are in degrees (yes) or radians (no).

endheader
time	pelvis_tilt	pelvis_list	pelvis_rotation	pelvis_tx	pelvis_ty	pelvis_tz	hip_flexion_r	hip_adduction_r	hip_rotation_r	knee_angle_r	knee_angle_r_beta	ankle_angle_r	subtalar_angle_r	mtp_angle_r	hip_flexion_l	hip_adduction_l	hip_rotation_l	knee_angle_l	knee_angle_l_beta	ankle_angle_l	subtalar_angle_l	mtp_angle_l	lumbar_extension	lumbar_bending	lumbar_rotation	arm_flex_r	arm_add_r	arm_rot_r	elbow_flex_r	pro_sup_r	wrist_flex_r	wrist_dev_r	arm_flex_l	arm_add_l	arm_rot_l	elbow_flex_l	pro_sup_l	wrist_flex_l	wrist_dev_l
      4.40000000	    -12.57381833	      0.80398616	     -3.50934669	     -0.20474130	      0.97804426	     -0.88642266	     25.04678841	    -11.80163229	    -12.77451052	     26.28439320	      0.45874920	    -19.47224876	      0.00000000	      0.00000000	     21.23052757	    -14.52887075	    -17.42103520	     24.15574089	      0.42159721	    -18.15452103	      0.00000000	      0.00000000	     -9.55236772	     -1.17125517	     -7.90643139	    -28.78094631	    -52.92357091	      7.14903199	    128.42193324	     87.48529677	      0.00000000	      0.00000000	    -63.85478313	    -18.52974338	    -17.67575708	    126.30036310	     88.25574723	      0.00000000	      0.00000000
      4.40500000	    -12.03346118	      0.93996862	     -3.49194122	     -0.19961597	      0.99227804	     -0.88657856	     22.26039832	    -11.45666051	    -13.32974410	     21.86859111	      0.38167892	    -24.16130656	      0.00000000	      0.00000000	     18.39558933	    -13.36472662	    -17.09966208	     19.22792710	      0.33559064	    -23.81130580	      0.00000000	      0.00000000	     -9.51774375	     -1.17509843	     -6.14634435	    -34.52644071	    -51.13815055	      1.87610558	    129.69547435	     87.54367692	      0.00000000	      0.00000000	    -63.22501320	    -19.94831624	    -16.68573328	    126.30551000	     88.24400253	      0.00000000	      0.00000000
      4.41000000	    -11.49604906	      1.07353519	     -3.52078126	     -0.19487906	      1.00639013	     -0.88630162	     19.54887080	    -11.04340293	    -13.90073581	     17.41386413	      0.30392926	    -28.89235190	      0.00000000	      0.00000000	     15.59659329	    -12.28740269	    -16.70550030	     14.18664640	      0.24760369	    -29.65608340	      0.00000000	      0.00000000	     -9.40827588	     -1.37249368	     -6.09249985	    -35.53604205	    -50.94324069	      1.17858532	    130.10943077	     87.61332553	      0.00000000	      0.00000000	    -63.81753892	    -19.33999655	    -16.80148005	    126.51909982	     88.25453051	      0.00000000	      0.00000000
      4.41500000	    -10.97517950	      1.26162142	     -3.51584428	     -0.18886632	      1.02016514	     -0.88628622	     16.83398739	    -10.76230295	    -14.84507162	     13.03097496	      0.22743342	    -33.33329230	      0.00000000	      0.00000000	     12.71175697	    -11.18662784	    -16.66559896	      9.10146682	      0.15885056	    -34.92875899	      0.00000000	      0.00000000	     -9.17491521	     -1.57194680	     -5.76997805	    -37.57550195	    -50.38876013	     -0.29478051	    130.60288731	     87.63132037	      0.00000000	      0.00000000	    -64.32730691	    -19.11799593	    -16.60258696	    126.59844996	     88.25551713	      0.00000000	      0.00000000
      4.42000000	    -10.47513117	      1.27177345	     -3.49085383	     -0.18381292	      1.03400800	     -0.88594740	     14.29302904	    -10.20836813	    -15.84012960	      8.89792729	      0.15529813	    -36.78921004	      0.00000000	      0.00000000	     10.30545482	    -10.43474887	    -17.04275329	      5.10787223	      0.08914919	    -37.78730115	      0.00000000	      0.00000000	     -9.01319213	     -1.62565064	     -5.71060965	    -38.68480727	    -50.04077614	     -1.09922362	    130.90736739	     87.63068718	      0.00000000	      0.00000000	    -64.83217228	    -18.68875665	    -16.72150623	    126.71796722	     88.25793840	      0.00000000	      0.00000000
      4.42500000	    -10.19249045	      1.30784392	     -3.41314228	     -0.17911703	      1.04761535	     -0.88563459	     12.22639594	     -9.66953561	    -16.74811002	      5.41303019	      0.09447520	    -37.95521460	      0.00000000	      0.00000000	      8.43549688	     -9.76398360	    -17.15227604	      1.85647597	      0.03240162	    -38.85689391	      0.00000000	      0.00000000	     -8.78998949	     -1.48895385	     -3.82188566	    -43.76173012	    -47.32136231	     -5.50171132	    132.00203973	     87.72731461	      0.00000000	      0.00000000	    -63.86331647	    -21.03217283	    -15.23006867	    126.52413282	     88.24901152	      0.00000000	      0.00000000
      4.43000000	     -9.97293798	      1.34532750	     -3.12570234	     -0.17520376	      1.06147997	     -0.88530696	     10.37603066	     -9.10931572	    -18.20111763	      2.40901884	      0.04204531	    -37.75066228	      0.00000000	      0.00000000	      7.62044176	     -9.36170472	    -18.34027879	      0.63983388	      0.01116721	    -38.82587024	      0.00000000	      0.00000000	     -8.45063664	     -1.57752358	     -4.09123245	    -44.14300893	    -46.77915919	     -5.62590436	    131.94096182	     87.67580550	      0.00000000	      0.00000000	    -64.21140532	    -20.88668466	    -15.33964029	    126.52746739	     88.21539953	      0.00000000	      0.00000000
      4.43500000	    -10.03905184	      1.33928058	     -2.96409722	     -0.17192806	      1.07481383	     -0.88472112	      9.47205378	     -8.56273848	    -20.26098261	      0.82387738	      0.01437937	    -36.76169261	      0.00000000	      0.00000000	      7.48439750	     -9.17644058	    -20.49005783	      0.34221836	      0.00597284	    -38.10938642	      0.00000000	      0.00000000	     -7.86889691	     -1.60746440	     -4.15178152	    -44.62242977	    -46.18123736	     -5.91075395	    131.97565456	     87.69941725	      0.00000000	      0.00000000	    -64.31633810	    -20.92295173	    -15.24048416	    126.42224009	     88.23189148	      0.00000000	      0.00000000
      4.44000000	    -10.23057809	      1.26504726	     -2.74012300	     -0.16922389	      1.08786125	     -0.88392153	      9.19557001	     -8.04590447	    -23.28226824	      0.51480860	      0.00898511	    -35.02417949	      0.00000000	      0.00000000	      7.50107903	     -9.00738124	    -22.96730798	      0.28437764	      0.00496333	    -36.93716094	      0.00000000	      0.00000000	     -7.25132740	     -1.47219248	     -3.20815695	    -46.81680963	    -44.11466522	     -7.98068884	    132.25189319	     87.77889753	      0.00000000	      0.00000000	    -63.53678180	    -22.54264864	    -14.57691419	    126.23439245	     88.22646481	      0.00000000	      0.00000000
      4.44500000	    -10.40420832	      1.10265029	     -2.44618844	     -0.16699042	      1.10063270	     -0.88321447	      8.99083318	     -7.41327282	    -26.71868603	      0.48110247	      0.00839682	    -33.89953167	      0.00000000	      0.00000000	      7.49347075	     -8.93277216	    -24.74503589	      0.29263132	      0.00510738	    -36.41736009	      0.00000000	      0.00000000	     -6.65571071	     -1.36305548	     -3.38212659	    -46.88441909	    -43.38662683	     -8.08518561	    132.08854613	     87.76145202	      0.00000000	      0.00000000	    -63.41152460	    -22.82069854	    -14.65194278	    126.17052014	     88.22235722	      0.00000000	      0.00000000
      4.45000000	    -10.66576475	      0.84302717	     -2.12681029	     -0.16588903	      1.11295823	     -0.88242683	      8.94687507	     -6.66205409	    -29.66646058	      0.52306424	      0.00912919	    -34.24940137	      0.00000000	      0.00000000	      7.65710723	     -8.94654630	    -25.63133425	      0.33857329	      0.00590922	    -37.12951994	      0.00000000	      0.00000000	     -6.05926342	     -1.13840842	     -3.45740964	    -46.88611470	    -42.57805763	     -8.41936350	    131.93702172	     87.76025237	      0.00000000	      0.00000000	    -63.02647832	    -23.42616213	    -14.44755058	    126.06648965	     88.20982683	      0.00000000	      0.00000000
      4.45500000	    -10.88559929	      0.62489268	     -1.78329448	     -0.16549729	      1.12530431	     -0.88168570	      8.84506056	     -5.94292995	    -31.33195706	      0.63294868	      0.01104704	    -34.81789794	      0.00000000	      0.00000000	      7.79560377	     -8.90317898	    -25.80931332	      0.45715973	      0.00797894	    -38.28880940	      0.00000000	      0.00000000	     -5.59481228	     -0.98702046	     -3.58519915	    -46.58341811	    -41.65759051	     -8.44231813	    131.50326339	     87.70826533	      0.00000000	      0.00000000	    -62.46274236	    -24.13795743	    -14.40916360	    126.01196164	     88.18515279	      0.00000000	      0.00000000
      4.46000000	    -11.04082489	      0.50680975	     -1.52881707	     -0.16551904	      1.13736552	     -0.88057828	      8.72032359	     -5.22962899	    -31.32589167	      0.92354387	      0.01611888	    -35.56591623	      0.00000000	      0.00000000	      7.92520029	     -8.74543958	    -25.44562026	      0.82620338	      0.01441997	    -39.06352121	      0.00000000	      0.00000000	     -5.22848288	     -0.96465978	     -3.71255875	    -46.00405560	    -40.87165544	     -8.35927445	    131.22400210	     87.62683371	      0.00000000	      0.00000000	    -61.84746870	    -24.82666876	    -14.47666718	    125.91231215	     88.10132937	      0.00000000	      0.00000000
